<svg xmlns="http://www.w3.org/2000/svg" viewBox="0 0 574.64 110.29"><defs><style>.cls-1{fill:#00c6ad}.cls-1,.cls-2,.cls-3,.cls-4,.cls-5{opacity:.7}.cls-2{fill:#02c6ad}.cls-3{fill:#01c7ae}.cls-4{fill:#5a5550}.cls-6{fill:#00c6c2}.cls-7{fill:#595650}.cls-8{fill:#3c3c3b}</style></defs><title>Ресурс 1</title><g id="Слой_2" data-name="Слой 2"><g id="Слой_1-2" data-name="Слой 1"><path class="cls-1" d="M56.16 93.2c1.95.78-.33-.17-1.07-.54-1.84-.92-3.62-2-5.37-3.06a79 79 0 0 1-16.35-14C15.95 56.33 9.48 30.08 9.35 4.68c0-6-9.38-6-9.35 0 .13 27.91 7.61 55.59 26.23 76.91 7.39 8.46 16.91 16.4 27.45 20.63 5.6 2.25 8-6.8 2.49-9z"/><path class="cls-2" d="M101.42 4.68c.7 25.67-5.51 51.53-23.13 70.89a78.22 78.22 0 0 1-16.71 13.9q-2.73 1.69-5.61 3.1-.87.42-1.75.81c-.53.23 1.35-.54.4-.18-5.57 2.14-3.15 11.18 2.49 9C68 98.05 77.7 90.1 85.43 81.6c19-20.91 26.1-49.18 25.34-76.92-.17-6-9.52-6-9.35 0z"/><path class="cls-3" d="M16.34 9.35h89.76c6 0 6-9.35 0-9.35H16.34c-6 0-6 9.35 0 9.35z"/><path class="cls-4" d="M55.11 98h-.08c-.13-.05-12.76-5.18-25.21-19.19C18.33 65.82 4.64 42.48 4.64 4.68h.47c0 37.66 13.63 60.89 25.06 73.75C42 91.75 54 97 55.11 97.46c1.15-.46 13.71-5.7 25.85-19 11.67-12.83 25.32-36 24.16-73.5H15.6v-.52h90v.23c1.23 37.81-12.53 61.15-24.29 74.07-12.75 14-26 19.14-26.1 19.19z"/><path class="cls-2" d="M55.2 72.74c1.95.79.35.13-.24-.16-1.09-.54-2.14-1.16-3.17-1.81A45.5 45.5 0 0 1 42.67 63C32.23 51.78 28.51 36.21 28.39 21.25c0-6-9.4-6-9.35 0 .19 23.42 10.18 51 33.68 60.51 5.6 2.26 8-6.79 2.49-9z"/><path class="cls-2" d="M81.86 21.25c.36 15.06-3.14 30.1-13.48 41.47A45.08 45.08 0 0 1 59 70.58a40.1 40.1 0 0 1-3.39 1.89c-.35.17-.7.34-1.06.49-.7.31 1.28-.51.54-.23-5.57 2.15-3.15 11.19 2.49 9C81.45 72.54 91.78 45 91.21 21.25c-.14-6-9.5-6-9.35 0zM23.72 25.93h49c6 0 6-9.35 0-9.35h-49c-6 0-6 9.35 0 9.35z"/><path class="cls-4" d="M55.18 78.49h-.08A47.45 47.45 0 0 1 39 66.61c-7.26-8-15.75-22.38-15-45.71v-.23h47.75v.47H24.44c-.69 23 7.69 37.25 14.86 45.14A47.43 47.43 0 0 0 55.17 78 46.81 46.81 0 0 0 70.5 66.28c7-7.91 15.4-22.21 15.4-45.37h.47c0 23.33-8.45 37.73-15.54 45.7-7.69 8.65-15.49 11.82-15.57 11.85z"/><path class="cls-4" d="M104 4.67c.56 25.5-5.45 51.6-22.39 71.32a81.52 81.52 0 0 1-17 15 69.91 69.91 0 0 1-6.2 3.65c-.77.4-3.26 1.44-3.31 1.57-.21.54.85.46.59.14-1-1.2-3.85-2.09-5.18-2.9a86.62 86.62 0 0 1-20.3-16.87c-1.37-1.57-3.64.72-2.28 2.28a88.82 88.82 0 0 0 18.6 15.92c2.07 1.34 4.18 2.61 6.36 3.77a4.7 4.7 0 0 0 2.75.93c2.71-.36 6.07-2.87 8.31-4.23 15.59-9.45 27.6-24.17 34.68-40.88 6.64-15.68 8.95-32.77 8.58-49.7 0-2.07-3.27-2.08-3.22 0z"/><path class="cls-4" d="M22.78 20.67c-.43 17.77 4.44 35.74 17.34 48.51a51.13 51.13 0 0 0 11.51 8.65c2 1.06 3.22 2 5.3 1 9-4.44 16.26-12.18 21.33-20.67a1.21 1.21 0 0 0-2.09-1.22 52.31 52.31 0 0 1-19.25 19.13 15.61 15.61 0 0 0-2 1c-.55.42.72.28.49-.07-.06-.09-1.7-.8-2.23-1.08a51.76 51.76 0 0 1-22-23.5c-4.72-9.89-6.26-20.89-6-31.76a1.21 1.21 0 0 0-2.42 0z"/><g class="cls-5"><path class="cls-6" d="M73.18 4.68h32.42"/><path class="cls-7" d="M73.18 6.29h32.42a1.61 1.61 0 0 0 0-3.22H73.18a1.61 1.61 0 0 0 0 3.22z"/></g><path class="cls-4" d="M47.17 37.8H70l-2.23-2.23c.16 10-4.3 21.82-13.25 25.44 1-.42 2.24.53 1-.11-.52-.26-1-.56-1.51-.87a22.7 22.7 0 0 1-4.52-3.84c-5.2-5.53-6.94-13.26-7-20.62 0-2.87-4.49-2.87-4.45 0 .13 8.53 2.31 16.61 7.85 23.21 1.82 2.17 6 6.61 9.27 6.61s7.1-4 9-6c6.14-6.39 8.25-15.23 8.12-23.81A2.25 2.25 0 0 0 70 33.35H47.17c-2.87 0-2.87 4.45 0 4.45z"/><path d="M164.92 32.72a10.41 10.41 0 0 1-.06 1.23 3.36 3.36 0 0 1-.19.82 1.09 1.09 0 0 1-.31.46.64.64 0 0 1-.41.15h-8v25.83a.69.69 0 0 1-.16.45 1.13 1.13 0 0 1-.53.32 5.19 5.19 0 0 1-1 .2 16.69 16.69 0 0 1-3.15 0 5.19 5.19 0 0 1-1-.2 1.12 1.12 0 0 1-.53-.32.69.69 0 0 1-.16-.45V35.37h-8a.62.62 0 0 1-.42-.15 1.15 1.15 0 0 1-.3-.46 3.3 3.3 0 0 1-.19-.82 10.28 10.28 0 0 1-.06-1.23 10.87 10.87 0 0 1 .06-1.26 3.33 3.33 0 0 1 .19-.83 1 1 0 0 1 .3-.45.66.66 0 0 1 .42-.14H164a.68.68 0 0 1 .41.14 1 1 0 0 1 .31.45 3.39 3.39 0 0 1 .19.83 11 11 0 0 1 .01 1.27zM186.52 50a16.88 16.88 0 0 1-.74 5.15 10.88 10.88 0 0 1-2.25 4 10 10 0 0 1-3.79 2.6 14.23 14.23 0 0 1-5.33.92 14.59 14.59 0 0 1-5.13-.82 9.22 9.22 0 0 1-3.62-2.38 9.76 9.76 0 0 1-2.13-3.84 17.86 17.86 0 0 1-.69-5.2 16.74 16.74 0 0 1 .76-5.17 10.88 10.88 0 0 1 2.27-4 10.11 10.11 0 0 1 3.78-2.59 14.13 14.13 0 0 1 5.31-.92 14.88 14.88 0 0 1 5.15.81 9 9 0 0 1 3.6 2.37 9.86 9.86 0 0 1 2.12 3.84 18 18 0 0 1 .69 5.23zm-6.42.25a16.22 16.22 0 0 0-.26-3 7.09 7.09 0 0 0-.88-2.39 4.41 4.41 0 0 0-1.65-1.59 5.29 5.29 0 0 0-2.59-.57 5.48 5.48 0 0 0-2.43.51 4.36 4.36 0 0 0-1.71 1.49 7.11 7.11 0 0 0-1 2.35 13.31 13.31 0 0 0-.33 3.13 15.47 15.47 0 0 0 .27 3 7.43 7.43 0 0 0 .88 2.39 4.19 4.19 0 0 0 1.65 1.57 5.4 5.4 0 0 0 2.58.56 5.53 5.53 0 0 0 2.45-.51 4.39 4.39 0 0 0 1.71-1.47 6.8 6.8 0 0 0 1-2.34 13.82 13.82 0 0 0 .32-3.14zM213.7 49.89a20.61 20.61 0 0 1-.63 5.31 12 12 0 0 1-1.85 4 8.19 8.19 0 0 1-3 2.55 9.24 9.24 0 0 1-4.14.89 7.88 7.88 0 0 1-1.77-.19 6.82 6.82 0 0 1-1.56-.57 9.61 9.61 0 0 1-1.5-1 17.63 17.63 0 0 1-1.54-1.34V70a.73.73 0 0 1-.15.45 1.12 1.12 0 0 1-.51.33 4.28 4.28 0 0 1-1 .21 15.4 15.4 0 0 1-3 0 4.27 4.27 0 0 1-1-.21 1.11 1.11 0 0 1-.51-.33.73.73 0 0 1-.15-.45V39.16a.76.76 0 0 1 .12-.43.91.91 0 0 1 .43-.31 3.36 3.36 0 0 1 .82-.19 10.94 10.94 0 0 1 1.28-.06 10.68 10.68 0 0 1 1.25.06 3.37 3.37 0 0 1 .82.19.91.91 0 0 1 .43.31.77.77 0 0 1 .12.43v2.6a22.59 22.59 0 0 1 1.9-1.75 11.49 11.49 0 0 1 1.9-1.26 8.63 8.63 0 0 1 2-.76 9.35 9.35 0 0 1 2.19-.25 8.38 8.38 0 0 1 4.14 1 7.83 7.83 0 0 1 2.79 2.61 11.78 11.78 0 0 1 1.57 3.86 21.45 21.45 0 0 1 .55 4.68zm-6.49.45a17 17 0 0 0-.21-2.71 8 8 0 0 0-.72-2.32 4.42 4.42 0 0 0-1.34-1.62 3.41 3.41 0 0 0-2.07-.61 4.17 4.17 0 0 0-1.23.19 4.76 4.76 0 0 0-1.24.61 8.69 8.69 0 0 0-1.3 1.09 15.6 15.6 0 0 0-1.41 1.66v7.27a14.54 14.54 0 0 0 2.5 2.56 4 4 0 0 0 2.48.9 3.43 3.43 0 0 0 2.07-.62 4.79 4.79 0 0 0 1.4-1.62 8.19 8.19 0 0 0 .81-2.27 12.5 12.5 0 0 0 .26-2.51zM233.1 41.07a9.61 9.61 0 0 1-.07 1.3 4 4 0 0 1-.2.85 1.05 1.05 0 0 1-.3.46.66.66 0 0 1-.42.14h-7.18v17.44a.67.67 0 0 1-.15.43 1.09 1.09 0 0 1-.51.31 4.41 4.41 0 0 1-1 .19q-.59.06-1.51.06t-1.51-.06a4.4 4.4 0 0 1-1-.19 1.09 1.09 0 0 1-.51-.31.67.67 0 0 1-.15-.43V40.33a2.3 2.3 0 0 1 .42-1.5 1.61 1.61 0 0 1 1.31-.51h11.69a.66.66 0 0 1 .42.14 1.06 1.06 0 0 1 .3.46 4 4 0 0 1 .2.85 9.63 9.63 0 0 1 .17 1.3zM258.56 50a16.88 16.88 0 0 1-.74 5.15 10.88 10.88 0 0 1-2.25 4 10 10 0 0 1-3.79 2.6 14.23 14.23 0 0 1-5.33.92 14.59 14.59 0 0 1-5.13-.82 9.22 9.22 0 0 1-3.62-2.38 9.76 9.76 0 0 1-2.13-3.84 17.86 17.86 0 0 1-.69-5.2 16.74 16.74 0 0 1 .76-5.17 10.88 10.88 0 0 1 2.27-4 10.11 10.11 0 0 1 3.78-2.59 14.13 14.13 0 0 1 5.31-.92 14.88 14.88 0 0 1 5.15.81 9 9 0 0 1 3.6 2.37 9.86 9.86 0 0 1 2.12 3.84 18 18 0 0 1 .69 5.23zm-6.42.25a16.22 16.22 0 0 0-.26-3 7.09 7.09 0 0 0-.88-2.39 4.41 4.41 0 0 0-1.65-1.59 5.29 5.29 0 0 0-2.59-.57 5.48 5.48 0 0 0-2.43.51 4.36 4.36 0 0 0-1.71 1.49 7.11 7.11 0 0 0-1 2.35 13.31 13.31 0 0 0-.33 3.13 15.47 15.47 0 0 0 .27 3 7.43 7.43 0 0 0 .88 2.39 4.19 4.19 0 0 0 1.65 1.57 5.4 5.4 0 0 0 2.58.56 5.53 5.53 0 0 0 2.45-.51 4.39 4.39 0 0 0 1.71-1.47 6.8 6.8 0 0 0 1-2.34 13.82 13.82 0 0 0 .32-3.14zM283.81 54.77a7.49 7.49 0 0 1-.71 3.34 6.05 6.05 0 0 1-2.1 2.4 10.85 10.85 0 0 1-3.63 1.49 22.91 22.91 0 0 1-5.08.5h-3.41l-1.56-.07q-.78-.05-1.67-.15a2.32 2.32 0 0 1-1.66-.69 2.73 2.73 0 0 1-.5-1.78V40.65a2.69 2.69 0 0 1 .47-1.72 2.11 2.11 0 0 1 1.44-.71l1.42-.1 1.75-.09 2-.06h2.06a24.39 24.39 0 0 1 4.57.37 9.7 9.7 0 0 1 3.17 1.13 5 5 0 0 1 1.86 1.86 5.29 5.29 0 0 1 .61 2.59 5.16 5.16 0 0 1-1.08 3.34 5.39 5.39 0 0 1-3.13 1.74 6.55 6.55 0 0 1 3.84 2 5.44 5.44 0 0 1 1.34 3.77zM277 45a2.86 2.86 0 0 0-.24-1.19 2.14 2.14 0 0 0-.76-.88 3.86 3.86 0 0 0-1.37-.55 9.89 9.89 0 0 0-2.07-.19h-1.77q-.83 0-1.45.12V48h3.34a5.66 5.66 0 0 0 3.21-.76A2.49 2.49 0 0 0 277 45zm.64 9.74a3.44 3.44 0 0 0-.26-1.39 2.26 2.26 0 0 0-.87-1 4.4 4.4 0 0 0-1.59-.58 12.75 12.75 0 0 0-2.34-.19h-3.25v6.34l.83.09.88.06H272.7a9.38 9.38 0 0 0 2.25-.24 4.26 4.26 0 0 0 1.54-.68 2.65 2.65 0 0 0 .87-1.08 3.5 3.5 0 0 0 .25-1.32zM307.42 61.34a.66.66 0 0 1-.25.55 1.7 1.7 0 0 1-.78.28 10.61 10.61 0 0 1-1.57.09 10.76 10.76 0 0 1-1.62-.09 1.39 1.39 0 0 1-.72-.28.71.71 0 0 1-.21-.55v-1.76a10 10 0 0 1-3.11 2.28 9 9 0 0 1-3.88.82 10.85 10.85 0 0 1-3.23-.46 7.27 7.27 0 0 1-2.55-1.36 6.13 6.13 0 0 1-1.67-2.24 7.63 7.63 0 0 1-.59-3.12 7.06 7.06 0 0 1 .76-3.36 6.14 6.14 0 0 1 2.25-2.35A11.22 11.22 0 0 1 294 48.4a26.64 26.64 0 0 1 5.18-.45h2.16v-1.33a7 7 0 0 0-.21-1.82 3 3 0 0 0-.69-1.3 2.87 2.87 0 0 0-1.29-.77 6.89 6.89 0 0 0-2-.25 10.26 10.26 0 0 0-2.79.35 16.06 16.06 0 0 0-2.17.77q-.94.42-1.57.77a2.3 2.3 0 0 1-1 .35.74.74 0 0 1-.48-.17 1.25 1.25 0 0 1-.35-.5 3.4 3.4 0 0 1-.21-.79 6.69 6.69 0 0 1-.07-1 4.7 4.7 0 0 1 .12-1.21 1.86 1.86 0 0 1 .47-.81 4.64 4.64 0 0 1 1.21-.79 14.28 14.28 0 0 1 2-.81 18.84 18.84 0 0 1 2.54-.61 18.67 18.67 0 0 1 7.28.27 7.51 7.51 0 0 1 3 1.56 6.07 6.07 0 0 1 1.73 2.71 12.69 12.69 0 0 1 .55 3.94zm-6.12-9.46h-2.38a12.77 12.77 0 0 0-2.58.22 4.94 4.94 0 0 0-1.73.67 2.75 2.75 0 0 0-1 1.08 3.25 3.25 0 0 0-.31 1.45 2.78 2.78 0 0 0 .88 2.18 3.51 3.51 0 0 0 2.44.79 4.57 4.57 0 0 0 2.42-.67 10 10 0 0 0 2.24-2zM347.1 61.34a.66.66 0 0 1-.14.42 1 1 0 0 1-.48.28 4.38 4.38 0 0 1-.93.16H342.58a5.18 5.18 0 0 1-1-.16 1.19 1.19 0 0 1-.55-.28.59.59 0 0 1-.16-.42v-9.86q0-1 .06-2.16t.19-2.18q-.59 1-1.29 2t-1.41 2L331 61.31a4.75 4.75 0 0 1-.42.46 1.45 1.45 0 0 1-.51.3 3.05 3.05 0 0 1-.78.15h-2.66a4.07 4.07 0 0 1-.89-.16.93.93 0 0 1-.47-.3.71.71 0 0 1-.14-.43V39.14a.67.67 0 0 1 .14-.41 1 1 0 0 1 .5-.31 4.41 4.41 0 0 1 .94-.19 14.5 14.5 0 0 1 1.47-.06 8.55 8.55 0 0 1 2.48.25q.72.25.72.72v9.81q0 1-.07 2.11t-.2 2.11q.59-1 1.21-2t1.31-1.9l7.53-10.16a2.52 2.52 0 0 1 .42-.46 1.7 1.7 0 0 1 .56-.3 3.89 3.89 0 0 1 .82-.16h2.69a3.61 3.61 0 0 1 .9.17.88.88 0 0 1 .46.32.83.83 0 0 1 .12.45zM385.65 61.26a.67.67 0 0 1-.15.43 1.09 1.09 0 0 1-.5.31 4.41 4.41 0 0 1-1 .19q-.59.06-1.51.06t-1.5-.06a4.67 4.67 0 0 1-1-.19 1 1 0 0 1-.51-.31.71.71 0 0 1-.14-.43V43.47h-8.35v17.79a.64.64 0 0 1-.16.43 1.19 1.19 0 0 1-.52.31 4.41 4.41 0 0 1-1 .19q-.59.06-1.51.06t-1.51-.06a4.4 4.4 0 0 1-1-.19 1 1 0 0 1-.5-.31.71.71 0 0 1-.14-.43V40.33a2.3 2.3 0 0 1 .42-1.5 1.61 1.61 0 0 1 1.31-.51h17.39a1.58 1.58 0 0 1 1.29.51 2.3 2.3 0 0 1 .42 1.5zM410.75 61.34a.66.66 0 0 1-.25.55 1.7 1.7 0 0 1-.78.28 10.61 10.61 0 0 1-1.57.09 10.76 10.76 0 0 1-1.62-.09 1.39 1.39 0 0 1-.72-.28.71.71 0 0 1-.21-.55v-1.76a10 10 0 0 1-3.11 2.28 9 9 0 0 1-3.88.82 10.85 10.85 0 0 1-3.23-.46 7.27 7.27 0 0 1-2.55-1.36 6.13 6.13 0 0 1-1.67-2.24 7.63 7.63 0 0 1-.59-3.12 7.06 7.06 0 0 1 .76-3.36 6.14 6.14 0 0 1 2.25-2.35 11.22 11.22 0 0 1 3.73-1.37 26.64 26.64 0 0 1 5.18-.45h2.16v-1.35a7 7 0 0 0-.21-1.82 3 3 0 0 0-.69-1.3 2.87 2.87 0 0 0-1.29-.77 6.89 6.89 0 0 0-2-.25 10.26 10.26 0 0 0-2.79.35 16.06 16.06 0 0 0-2.17.77q-.94.42-1.57.77a2.3 2.3 0 0 1-1 .35.74.74 0 0 1-.48-.17 1.25 1.25 0 0 1-.35-.5 3.4 3.4 0 0 1-.21-.79 6.69 6.69 0 0 1-.07-1 4.7 4.7 0 0 1 .08-1.26 1.86 1.86 0 0 1 .47-.81 4.64 4.64 0 0 1 1.21-.79 14.28 14.28 0 0 1 2-.81 18.84 18.84 0 0 1 2.54-.61 18.67 18.67 0 0 1 7.28.27 7.51 7.51 0 0 1 3 1.56 6.07 6.07 0 0 1 1.73 2.71 12.69 12.69 0 0 1 .55 3.94zm-6.12-9.46h-2.38a12.77 12.77 0 0 0-2.58.22 4.94 4.94 0 0 0-1.73.67 2.75 2.75 0 0 0-1 1.08 3.25 3.25 0 0 0-.31 1.45 2.78 2.78 0 0 0 .88 2.18 3.51 3.51 0 0 0 2.44.79 4.57 4.57 0 0 0 2.42-.67 10 10 0 0 0 2.24-2zM439.21 49.89a20.61 20.61 0 0 1-.63 5.31 12 12 0 0 1-1.85 4 8.19 8.19 0 0 1-3 2.55 9.24 9.24 0 0 1-4.14.89 7.88 7.88 0 0 1-1.77-.19 6.82 6.82 0 0 1-1.56-.57 9.61 9.61 0 0 1-1.5-1 17.63 17.63 0 0 1-1.54-1.34V70a.73.73 0 0 1-.15.45 1.12 1.12 0 0 1-.51.33 4.28 4.28 0 0 1-1 .21 15.4 15.4 0 0 1-3 0 4.27 4.27 0 0 1-1-.21 1.11 1.11 0 0 1-.51-.33.73.73 0 0 1-.05-.45V39.16a.76.76 0 0 1 .12-.43.91.91 0 0 1 .43-.31 3.36 3.36 0 0 1 .82-.19 10.94 10.94 0 0 1 1.28-.06 10.68 10.68 0 0 1 1.25.06 3.37 3.37 0 0 1 .82.19.91.91 0 0 1 .43.31.77.77 0 0 1 .12.43v2.6a22.59 22.59 0 0 1 1.9-1.75 11.49 11.49 0 0 1 1.9-1.26 8.63 8.63 0 0 1 2-.76 9.35 9.35 0 0 1 2.19-.25 8.38 8.38 0 0 1 4.14 1 7.83 7.83 0 0 1 2.79 2.61 11.78 11.78 0 0 1 1.57 3.86 21.45 21.45 0 0 1 .45 4.68zm-6.49.45a17 17 0 0 0-.21-2.71 8 8 0 0 0-.72-2.32 4.42 4.42 0 0 0-1.34-1.62 3.41 3.41 0 0 0-2.07-.61 4.17 4.17 0 0 0-1.23.19 4.76 4.76 0 0 0-1.24.61 8.69 8.69 0 0 0-1.3 1.09 15.6 15.6 0 0 0-1.41 1.66v7.27a14.54 14.54 0 0 0 2.5 2.56 4 4 0 0 0 2.48.9 3.43 3.43 0 0 0 2.07-.62 4.79 4.79 0 0 0 1.4-1.62 8.19 8.19 0 0 0 .81-2.27 12.5 12.5 0 0 0 .26-2.51zM460.59 41.07a12.51 12.51 0 0 1-.06 1.36 3.64 3.64 0 0 1-.19.87.91.91 0 0 1-.31.45.72.72 0 0 1-.41.12h-5.57v17.39a.67.67 0 0 1-.15.43 1.09 1.09 0 0 1-.5.31 4.21 4.21 0 0 1-1 .19q-.61.06-1.52.06t-1.49-.06a4.4 4.4 0 0 1-1-.19 1 1 0 0 1-.5-.31.71.71 0 0 1-.14-.43V43.87h-5.57a.71.71 0 0 1-.43-.14 1 1 0 0 1-.31-.46 3.64 3.64 0 0 1-.19-.89 13.07 13.07 0 0 1-.06-1.39 8.85 8.85 0 0 1 .07-1.25 3.94 3.94 0 0 1 .2-.83 1 1 0 0 1 .3-.46.66.66 0 0 1 .42-.14h17.34a.68.68 0 0 1 .41.14 1 1 0 0 1 .31.46 3.63 3.63 0 0 1 .19.85 11.63 11.63 0 0 1 .16 1.31zM485.37 61.26a.67.67 0 0 1-.15.43 1.09 1.09 0 0 1-.5.31 4.21 4.21 0 0 1-1 .19q-.61.06-1.5.06t-1.52-.06a4.2 4.2 0 0 1-1-.19 1.09 1.09 0 0 1-.5-.31.67.67 0 0 1-.15-.43v-8.7h-8.94v8.7a.67.67 0 0 1-.15.43 1.09 1.09 0 0 1-.51.31 4.41 4.41 0 0 1-1 .19q-.59.06-1.51.06t-1.51-.06a4.4 4.4 0 0 1-1-.19 1.09 1.09 0 0 1-.51-.31.67.67 0 0 1-.15-.43v-22.1a.67.67 0 0 1 .15-.43 1.1 1.1 0 0 1 .51-.31 4.44 4.44 0 0 1 1-.19q.59-.06 1.51-.06t1.51.06a4.45 4.45 0 0 1 1 .19 1.1 1.1 0 0 1 .51.31.67.67 0 0 1 .15.43v8.27h8.94v-8.27a.67.67 0 0 1 .15-.43 1.09 1.09 0 0 1 .5-.31 4.23 4.23 0 0 1 1-.19q.61-.06 1.52-.06t1.5.06a4.25 4.25 0 0 1 1 .19 1.09 1.09 0 0 1 .5.31.67.67 0 0 1 .15.43zM539.42 49.89a20.61 20.61 0 0 1-.63 5.31 12 12 0 0 1-1.85 4 8.19 8.19 0 0 1-3 2.55 9.24 9.24 0 0 1-4.14.89 7.88 7.88 0 0 1-1.77-.19 6.82 6.82 0 0 1-1.56-.57 9.61 9.61 0 0 1-1.5-1 17.63 17.63 0 0 1-1.54-1.34V70a.73.73 0 0 1-.15.45 1.12 1.12 0 0 1-.51.33 4.28 4.28 0 0 1-1 .21 15.4 15.4 0 0 1-3 0 4.27 4.27 0 0 1-1-.21 1.11 1.11 0 0 1-.51-.33.73.73 0 0 1-.15-.45V39.16a.76.76 0 0 1 .12-.43.91.91 0 0 1 .43-.31 3.36 3.36 0 0 1 .82-.19 10.94 10.94 0 0 1 1.28-.06 10.68 10.68 0 0 1 1.25.06 3.37 3.37 0 0 1 .82.19.91.91 0 0 1 .43.31.77.77 0 0 1 .12.43v2.6a22.59 22.59 0 0 1 1.9-1.75 11.49 11.49 0 0 1 1.9-1.26 8.63 8.63 0 0 1 2-.76 9.35 9.35 0 0 1 2.19-.25 8.38 8.38 0 0 1 4.14 1 7.83 7.83 0 0 1 2.79 2.61 11.78 11.78 0 0 1 1.57 3.86 21.45 21.45 0 0 1 .55 4.68zm-6.49.45a17 17 0 0 0-.21-2.71 8 8 0 0 0-.72-2.32 4.42 4.42 0 0 0-1.34-1.62 3.41 3.41 0 0 0-2.07-.61 4.17 4.17 0 0 0-1.23.19 4.76 4.76 0 0 0-1.24.61 8.69 8.69 0 0 0-1.3 1.09 15.6 15.6 0 0 0-1.41 1.66v7.27a14.54 14.54 0 0 0 2.5 2.56 4 4 0 0 0 2.48.9 3.43 3.43 0 0 0 2.07-.62 4.79 4.79 0 0 0 1.4-1.62 8.19 8.19 0 0 0 .81-2.27 12.5 12.5 0 0 0 .26-2.51zM550.65 46l1.71-.12h1.93a17.52 17.52 0 0 1 4.71.56 9 9 0 0 1 3.27 1.6 6.48 6.48 0 0 1 1.92 2.51 8.45 8.45 0 0 1 .63 3.36 8.88 8.88 0 0 1-.71 3.58 7.21 7.21 0 0 1-2.11 2.69 10.27 10.27 0 0 1-3.7 1.82 19.6 19.6 0 0 1-5.3.63H549.69l-1.57-.09q-.77-.05-1.46-.12a2.59 2.59 0 0 1-1.72-.72 2.64 2.64 0 0 1-.53-1.81V39.16a.67.67 0 0 1 .15-.43 1.09 1.09 0 0 1 .5-.31 4.14 4.14 0 0 1 .92-.19 13.53 13.53 0 0 1 1.41-.06 9 9 0 0 1 2.53.25q.74.25.74.74zm7.8 8.2a4.32 4.32 0 0 0-.26-1.55 2.79 2.79 0 0 0-.84-1.16 3.92 3.92 0 0 0-1.52-.73 9.21 9.21 0 0 0-2.3-.25h-1.55l-1.33.09v7.13l1.41.12q.69.05 1.61 0a5.49 5.49 0 0 0 3.63-1 3.43 3.43 0 0 0 1.15-2.67zm15.81 7.09a.67.67 0 0 1-.15.43 1.09 1.09 0 0 1-.5.31 4.18 4.18 0 0 1-.94.19q-.59.06-1.54.06t-1.49-.06a4.4 4.4 0 0 1-1-.19 1.09 1.09 0 0 1-.51-.31.67.67 0 0 1-.15-.43V39.16a.67.67 0 0 1 .15-.43 1.1 1.1 0 0 1 .51-.31 4.44 4.44 0 0 1 1-.19q.59-.06 1.49-.06t1.54.06a4.21 4.21 0 0 1 .94.19 1.09 1.09 0 0 1 .5.31.67.67 0 0 1 .15.43zM511.9 49.8a2.37 2.37 0 0 1-.5 1.66 1.79 1.79 0 0 1-1.4.54h-13.22a9 9 0 0 0 .33 2.52 4.82 4.82 0 0 0 1 1.93 4.56 4.56 0 0 0 1.89 1.21 7.92 7.92 0 0 0 2.72.41 15.28 15.28 0 0 0 2.83-.23 18.69 18.69 0 0 0 2.11-.51q.89-.28 1.48-.51a2.75 2.75 0 0 1 1-.23.72.72 0 0 1 .37.09.64.64 0 0 1 .24.3 2.07 2.07 0 0 1 .13.62V59.51a5.83 5.83 0 0 1-.07.65 1.53 1.53 0 0 1-.15.45 1.68 1.68 0 0 1-.26.35 3 3 0 0 1-.87.46 13.67 13.67 0 0 1-1.8.57 24.89 24.89 0 0 1-2.51.49 20.89 20.89 0 0 1-3 .21 16 16 0 0 1-5.08-.73 9.05 9.05 0 0 1-3.65-2.22 9.23 9.23 0 0 1-2.23-3.74 17.63 17.63 0 0 1-.72-5.32 16.89 16.89 0 0 1 .76-5.23 11 11 0 0 1 2.19-4A9.44 9.44 0 0 1 497 39a12 12 0 0 1 4.65-.85 12.17 12.17 0 0 1 4.67.8 8.43 8.43 0 0 1 3.18 2.23 9 9 0 0 1 1.83 3.38 14.71 14.71 0 0 1 .59 4.24zm-12-17.58a3.41 3.41 0 0 1-.65 2.38 3.4 3.4 0 0 1-2.45.67 3.48 3.48 0 0 1-2.46-.65 3.23 3.23 0 0 1-.63-2.28 3.41 3.41 0 0 1 .66-2.41 5 5 0 0 1 4.91 0 3.32 3.32 0 0 1 .57 2.29zM506 48a6.31 6.31 0 0 0-1-4.06 4 4 0 0 0-3.43-1.48 4.45 4.45 0 0 0-2 .44 4.17 4.17 0 0 0-1.57 1.23 5.4 5.4 0 0 0-.88 1.76 8.74 8.74 0 0 0-.35 2.16zm3.44-15.82a3.41 3.41 0 0 1-.65 2.38 4.91 4.91 0 0 1-4.91 0 3.22 3.22 0 0 1-.63-2.28 3.45 3.45 0 0 1 .65-2.41 3.45 3.45 0 0 1 2.45-.66 3.49 3.49 0 0 1 2.46.65 3.27 3.27 0 0 1 .58 2.36z"/><path class="cls-8" d="M145.78 91.51h4.33a17.41 17.41 0 0 1 .58-3.81 5.29 5.29 0 0 1 1.31-2.33 5.11 5.11 0 0 1 2.35-1.24 19.49 19.49 0 0 1 7.68 0 5 5 0 0 1 2.44 1.4 6.13 6.13 0 0 1 1.37 2.85 21.93 21.93 0 0 1 .43 4.83 22 22 0 0 1-.43 4.83 6.23 6.23 0 0 1-1.37 2.87 5 5 0 0 1-2.47 1.41 15.92 15.92 0 0 1-3.88.39 15.75 15.75 0 0 1-3.85-.39 5 5 0 0 1-2.41-1.36 5.91 5.91 0 0 1-1.35-2.71 19.55 19.55 0 0 1-.43-4.53h-4.33v8.64H143V84.07h2.8zm17.69 1.72a18.14 18.14 0 0 0-.42-4.55 3.13 3.13 0 0 0-1.54-2.08 7.63 7.63 0 0 0-3.36-.57 10 10 0 0 0-2.68.29 2.81 2.81 0 0 0-1.53 1 5 5 0 0 0-.77 2.15 32 32 0 0 0 0 7.53 4.89 4.89 0 0 0 .77 2.13 2.79 2.79 0 0 0 1.53 1 10.11 10.11 0 0 0 2.68.28 10.53 10.53 0 0 0 2.73-.28 2.85 2.85 0 0 0 1.57-1 4.87 4.87 0 0 0 .79-2.14 24.46 24.46 0 0 0 .23-3.76zM175.55 100.29v10h-2.8V84.07h2.73l-.1 2.34a5.46 5.46 0 0 1 2.43-2.09 8.82 8.82 0 0 1 3.41-.6 8.45 8.45 0 0 1 4.78 1.1 5.06 5.06 0 0 1 2.09 3.06 22.51 22.51 0 0 1 .49 5.29 30 30 0 0 1-.23 4.06 8.08 8.08 0 0 1-.93 2.89 4.74 4.74 0 0 1-2.14 1.93 8.7 8.7 0 0 1-3.75.69 11.08 11.08 0 0 1-3.56-.5 4.51 4.51 0 0 1-2.42-1.95zm0-7.16a26.62 26.62 0 0 0 .41 4.39 3.5 3.5 0 0 0 1.36 2.2 5.56 5.56 0 0 0 3.24.76 6.27 6.27 0 0 0 3.51-.77 3.33 3.33 0 0 0 1.38-2.21 25.07 25.07 0 0 0 .28-4.36 25.35 25.35 0 0 0-.26-4.21 3.26 3.26 0 0 0-1.33-2.16 6.07 6.07 0 0 0-3.45-.76 6.67 6.67 0 0 0-3.49.7 3.08 3.08 0 0 0-1.37 2.09 24.43 24.43 0 0 0-.28 4.33zM195 102.39V84.07h2.76v15l9.4-15h3.39v18.31h-2.76V87.5l-9.33 14.89H195zM217.56 100.15a12 12 0 0 0 1.07-2.23 11.21 11.21 0 0 0 .52-2.38 28.14 28.14 0 0 0 .15-3.19v-8.28h13v16.08h1.92v7.44h-2.55v-5.21h-13.23v5.21h-2.55v-7.44zm11.92 0V86.31h-7.41v6.57a14 14 0 0 1-1.58 7.27zM239.34 102.39V84.07h2.76v15l9.4-15h3.39v18.31h-2.76V87.5l-9.33 14.89h-3.46zM276.21 84v18.35h-2.8v-9.44h-.14a3 3 0 0 1-1.67 1.23 15.09 15.09 0 0 1-3.72.31 9.49 9.49 0 0 1-3.3-.49 3.72 3.72 0 0 1-2-1.63 6 6 0 0 1-.67-3V84h2.8v4.64a5.83 5.83 0 0 0 .32 2.24 1.78 1.78 0 0 0 1.14 1 8.66 8.66 0 0 0 2.48.26 10.4 10.4 0 0 0 4.72-.84V84zM298.8 93.75h-13.18a21.94 21.94 0 0 0 .25 3.42 4.72 4.72 0 0 0 .79 2 2.92 2.92 0 0 0 1.55 1 9.5 9.5 0 0 0 2.65.3 15.19 15.19 0 0 0 3.33-.26 2.2 2.2 0 0 0 1.46-.91 4 4 0 0 0 .38-2v-.5h2.76a6.81 6.81 0 0 1-.87 3.81 4.16 4.16 0 0 1-2.53 1.71 19.34 19.34 0 0 1-4.53.42 11.31 11.31 0 0 1-4.85-.84 4.81 4.81 0 0 1-2.43-2.9 18.29 18.29 0 0 1-.72-5.83 18.78 18.78 0 0 1 .46-4.53 6.85 6.85 0 0 1 1.4-2.88 5.31 5.31 0 0 1 2.44-1.55 12.3 12.3 0 0 1 3.67-.47q4.27 0 6.12 1.94t1.85 6.66zm-2.8-2.13a9.39 9.39 0 0 0-.48-3.36 3.17 3.17 0 0 0-1.61-1.76 7.33 7.33 0 0 0-3.11-.54 7.1 7.1 0 0 0-3.11.55 3.16 3.16 0 0 0-1.58 1.77 9.84 9.84 0 0 0-.48 3.33zM317.78 95.75h2.69a13 13 0 0 1-.58 3.51 4.67 4.67 0 0 1-1.37 2.12 5.28 5.28 0 0 1-2.32 1.05 17.88 17.88 0 0 1-3.61.3 13 13 0 0 1-3.83-.47 4.94 4.94 0 0 1-2.38-1.54 6.61 6.61 0 0 1-1.27-2.86 22.36 22.36 0 0 1-.39-4.6 18.47 18.47 0 0 1 .7-5.71 4.9 4.9 0 0 1 2.37-2.92 10.38 10.38 0 0 1 4.72-.88 14.65 14.65 0 0 1 4.12.49 4.68 4.68 0 0 1 2.53 1.76 6.24 6.24 0 0 1 1 3.46V90h-2.65a6.17 6.17 0 0 0-.37-2.41 2.33 2.33 0 0 0-1.44-1.22 10 10 0 0 0-3.19-.38 7 7 0 0 0-3.15.55 3 3 0 0 0-1.42 2 19.75 19.75 0 0 0-.39 4.59 18.19 18.19 0 0 0 .43 4.58 3.26 3.26 0 0 0 1.48 2.12 6.68 6.68 0 0 0 3.12.58 12.88 12.88 0 0 0 2.61-.21 3 3 0 0 0 1.5-.72 2.94 2.94 0 0 0 .76-1.37 12.56 12.56 0 0 0 .33-2.36zM330.12 84.07v7.37h1.08l6.6-7.37h3.35l-7.79 8.42 9.22 9.89H339l-7.76-8.81h-1.08v8.81h-2.8V84.07zM359.82 93.44v-2.62a10 10 0 0 0-.4-3.33 2.22 2.22 0 0 0-1.47-1.37 12.79 12.79 0 0 0-3.47-.34 11.39 11.39 0 0 0-2.6.22 2.08 2.08 0 0 0-1.28.81 3.43 3.43 0 0 0-.45 1.76v.53h-2.84a5.75 5.75 0 0 1 .9-3.54 4 4 0 0 1 2.4-1.49 19.49 19.49 0 0 1 4-.32 18 18 0 0 1 4.52.45 4.29 4.29 0 0 1 2.58 1.86 7.75 7.75 0 0 1 .9 4.16v12.16H360l.1-2.3a5.55 5.55 0 0 1-1.36 1.72 4 4 0 0 1-1.8.75 18.52 18.52 0 0 1-3 .19 14.89 14.89 0 0 1-4-.44 4.09 4.09 0 0 1-2.38-1.72 6.79 6.79 0 0 1-.84-3.7 6.14 6.14 0 0 1 .83-3.48 4.06 4.06 0 0 1 2.34-1.65 14.29 14.29 0 0 1 3.82-.43 19.76 19.76 0 0 1 3.32.21 4.34 4.34 0 0 1 1.78.65 3.55 3.55 0 0 1 1.01 1.26zm0 3.6a4.42 4.42 0 0 0-.5-2.4 2.51 2.51 0 0 0-1.73-1 23.7 23.7 0 0 0-3.88-.23 6.19 6.19 0 0 0-3.24.64 2.78 2.78 0 0 0-1 2.51 5.49 5.49 0 0 0 .44 2.42 2.41 2.41 0 0 0 1.35 1.21 7.22 7.22 0 0 0 2.47.35 24.07 24.07 0 0 0 3.39-.18 3.31 3.31 0 0 0 2-.95 3.35 3.35 0 0 0 .73-2.41zM383.66 102.39h-2.8V95h-5.52l-3.64 7.37h-3.14l4-7.72a4 4 0 0 1-1.85-.81 4.8 4.8 0 0 1-1.42-1.79 5.76 5.76 0 0 1-.54-2.53 6.19 6.19 0 0 1 .72-3.17 4.15 4.15 0 0 1 1.93-1.75 6.85 6.85 0 0 1 2.77-.53h9.51zm-8.59-16.08a4 4 0 0 0-2.7.73 3.25 3.25 0 0 0-.8 2.48 4.85 4.85 0 0 0 .33 2 1.82 1.82 0 0 0 1.1 1 6.8 6.8 0 0 0 2.13.26h5.73v-6.47zM404.6 84.07v7.37h1.08l6.6-7.37h3.35l-7.79 8.42 9.22 9.89h-3.64l-7.76-8.81h-1.06v8.81h-2.8V84.07zM437.45 93.23a22.09 22.09 0 0 1-.41 4.72 6.33 6.33 0 0 1-1.35 2.88 5 5 0 0 1-2.46 1.48 17.66 17.66 0 0 1-7.74 0 5 5 0 0 1-2.44-1.48 6.38 6.38 0 0 1-1.34-2.88 22.09 22.09 0 0 1-.41-4.68 18 18 0 0 1 .74-5.86 4.76 4.76 0 0 1 2.45-2.85 11.7 11.7 0 0 1 4.84-.8 14.87 14.87 0 0 1 3.91.42 5 5 0 0 1 2.44 1.46 6.29 6.29 0 0 1 1.32 2.87 22 22 0 0 1 .45 4.72zm-2.83 0a23 23 0 0 0-.24-3.73 4.89 4.89 0 0 0-.81-2.14 3 3 0 0 0-1.56-1 9.74 9.74 0 0 0-2.66-.29 7.44 7.44 0 0 0-3.25.55 3.13 3.13 0 0 0-1.52 2.08 18.08 18.08 0 0 0-.44 4.61 17.68 17.68 0 0 0 .44 4.61 3.11 3.11 0 0 0 1.52 2.06 7.54 7.54 0 0 0 3.24.54 9.9 9.9 0 0 0 2.64-.28 3 3 0 0 0 1.56-1 4.84 4.84 0 0 0 .83-2.15 22.83 22.83 0 0 0 .24-3.86zM454.16 99.2l6.08-15.13h4.45v18.31h-2.76v-15.9l-6.54 15.91h-2.45l-6.49-15.91v15.91h-2.76V84.07h4.4zM471.46 84.07h15.21v18.31h-2.8V86.31h-9.61v16.08h-2.8zM506.09 93.44v-2.62a10 10 0 0 0-.4-3.33 2.22 2.22 0 0 0-1.47-1.37 12.79 12.79 0 0 0-3.47-.34 11.39 11.39 0 0 0-2.6.22 2.08 2.08 0 0 0-1.28.81 3.43 3.43 0 0 0-.45 1.76v.53h-2.84a5.75 5.75 0 0 1 .9-3.54 4 4 0 0 1 2.4-1.49 19.49 19.49 0 0 1 4-.32 18 18 0 0 1 4.52.45 4.29 4.29 0 0 1 2.6 1.87 7.75 7.75 0 0 1 .9 4.16v12.16h-2.63l.1-2.3a5.55 5.55 0 0 1-1.37 1.71 4 4 0 0 1-1.8.75 18.52 18.52 0 0 1-3 .19 14.89 14.89 0 0 1-4-.44 4.09 4.09 0 0 1-2.38-1.72 6.79 6.79 0 0 1-.84-3.7 6.14 6.14 0 0 1 .83-3.48 4.06 4.06 0 0 1 2.34-1.65 14.29 14.29 0 0 1 3.82-.43 19.76 19.76 0 0 1 3.32.21 4.34 4.34 0 0 1 1.78.65 3.55 3.55 0 0 1 1.02 1.26zm0 3.6a4.42 4.42 0 0 0-.5-2.4 2.51 2.51 0 0 0-1.73-1 23.7 23.7 0 0 0-3.88-.23 6.19 6.19 0 0 0-3.24.64 2.78 2.78 0 0 0-1 2.51 5.49 5.49 0 0 0 .44 2.42 2.41 2.41 0 0 0 1.35 1.21 7.22 7.22 0 0 0 2.47.35 24.07 24.07 0 0 0 3.39-.18 3.31 3.31 0 0 0 2-.95 3.35 3.35 0 0 0 .73-2.41zM515.81 84.07h2.8v7.48h9.61v-7.48H531v18.31h-2.8v-8.6h-9.61v8.6h-2.8zM538 102.39V84.07h2.76v15l9.4-15h3.39v18.31h-2.76V87.5l-9.33 14.89H538zM574.64 102.39h-2.8V95h-5.52l-3.64 7.37h-3.14l4-7.72a4 4 0 0 1-1.85-.81 4.8 4.8 0 0 1-1.42-1.79 5.76 5.76 0 0 1-.54-2.53 6.19 6.19 0 0 1 .72-3.17 4.15 4.15 0 0 1 1.93-1.75 6.85 6.85 0 0 1 2.77-.53h9.51zM566 86.31a4 4 0 0 0-2.7.73 3.25 3.25 0 0 0-.8 2.48 4.85 4.85 0 0 0 .33 2 1.82 1.82 0 0 0 1.1 1 6.8 6.8 0 0 0 2.13.26h5.73v-6.47z"/></g></g></svg>