<svg aria-hidden="true" style="position: absolute; width: 0; height: 0; overflow: hidden;" version="1.1" xmlns="http://www.w3.org/2000/svg" xmlns:xlink="http://www.w3.org/1999/xlink">
<defs>
<symbol id="icon-chevron-up" viewBox="0 0 20 20">
<path d="M6.582 12.141c-0.271 0.268-0.709 0.268-0.978 0s-0.272-0.701 0-0.969l3.908-3.83c0.27-0.268 0.707-0.268 0.979 0l3.908 3.83c0.27 0.267 0.27 0.701 0 0.969s-0.709 0.268-0.979 0l-3.42-3.141-3.418 3.141z"></path>
</symbol>
<symbol id="icon-location" viewBox="0 0 20 20">
<path d="M10 2.009c-2.762 0-5 2.229-5 4.99 0 4.774 5 11 5 11s5-6.227 5-11c0-2.76-2.238-4.99-5-4.99zM10 9.76c-1.492 0-2.7-1.209-2.7-2.7s1.208-2.7 2.7-2.7c1.49 0 2.699 1.209 2.699 2.7s-1.209 2.7-2.699 2.7z"></path>
</symbol>
<symbol id="icon-mail" viewBox="0 0 20 20">
<path d="M1.574 5.286c0.488 0.262 7.248 3.894 7.5 4.029s0.578 0.199 0.906 0.199c0.328 0 0.654-0.064 0.906-0.199s7.012-3.767 7.5-4.029c0.489-0.263 0.951-1.286 0.054-1.286h-16.919c-0.897 0-0.435 1.023 0.053 1.286zM18.613 7.489c-0.555 0.289-7.387 3.849-7.727 4.027s-0.578 0.199-0.906 0.199-0.566-0.021-0.906-0.199-7.133-3.739-7.688-4.028c-0.39-0.204-0.386 0.035-0.386 0.219s0 7.293 0 7.293c0 0.42 0.566 1 1 1h16c0.434 0 1-0.58 1-1 0 0 0-7.108 0-7.292s0.004-0.423-0.387-0.219z"></path>
</symbol>
<symbol id="icon-phone" viewBox="0 0 20 20">
<path d="M17.256 12.253c-0.096-0.667-0.611-1.187-1.274-1.342-2.577-0.604-3.223-2.088-3.332-3.734-0.457-0.085-1.27-0.177-2.65-0.177s-2.193 0.092-2.65 0.177c-0.109 1.646-0.755 3.13-3.332 3.734-0.663 0.156-1.178 0.675-1.274 1.342l-0.497 3.442c-0.175 1.212 0.715 2.305 1.953 2.305h11.6c1.237 0 2.128-1.093 1.953-2.305l-0.497-3.442zM10 15.492c-1.395 0-2.526-1.12-2.526-2.5s1.131-2.5 2.526-2.5 2.526 1.12 2.526 2.5-1.132 2.5-2.526 2.5zM19.95 6c-0.024-1.5-3.842-3.999-9.95-4-6.109 0.001-9.927 2.5-9.95 4s0.021 3.452 2.535 3.127c2.941-0.381 2.76-1.408 2.76-2.876 0-1.024 2.392-1.271 4.655-1.271s4.654 0.247 4.655 1.271c0 1.468-0.181 2.495 2.76 2.876 2.513 0.325 2.558-1.627 2.535-3.127z"></path>
</symbol>
<symbol id="icon-vk" viewBox="0 0 20 20">
<path d="M17.802 12.298c0 0 1.617 1.597 2.017 2.336 0.011 0.016 0.016 0.028 0.018 0.035 0.163 0.273 0.203 0.487 0.123 0.645-0.135 0.261-0.592 0.392-0.747 0.403 0 0-2.778 0-2.858 0-0.199 0-0.613-0.052-1.117-0.4-0.385-0.269-0.768-0.712-1.139-1.145-0.554-0.643-1.033-1.201-1.518-1.201-0.062 0-0.122 0.010-0.18 0.030-0.367 0.116-0.833 0.639-0.833 2.032 0 0.436-0.344 0.684-0.585 0.684 0 0-1.248 0-1.309 0-0.446 0-2.768-0.156-4.827-2.327-2.523-2.658-4.789-7.99-4.811-8.037-0.141-0.345 0.155-0.533 0.475-0.533h2.886c0.387 0 0.513 0.234 0.601 0.444 0.102 0.241 0.48 1.205 1.1 2.288 1.004 1.762 1.621 2.479 2.114 2.479 0.093 0 0.181-0.023 0.264-0.070 0.644-0.354 0.524-2.654 0.494-3.128 0-0.092-0.001-1.027-0.331-1.479-0.236-0.324-0.638-0.45-0.881-0.496 0.065-0.094 0.203-0.238 0.38-0.323 0.441-0.22 1.238-0.252 2.029-0.252h0.439c0.858 0.012 1.080 0.067 1.392 0.146 0.628 0.15 0.64 0.557 0.585 1.943-0.016 0.396-0.033 0.842-0.033 1.367 0 0.112-0.005 0.237-0.005 0.364-0.019 0.711-0.044 1.512 0.458 1.841 0.064 0.040 0.139 0.062 0.217 0.062 0.174 0 0.695 0 2.108-2.425 0.62-1.071 1.1-2.334 1.133-2.429 0.028-0.053 0.112-0.202 0.214-0.262 0.078-0.048 0.182-0.056 0.236-0.056h3.395c0.37 0 0.621 0.056 0.67 0.196 0.082 0.227-0.016 0.92-1.566 3.016-0.261 0.349-0.49 0.651-0.691 0.915-1.405 1.844-1.405 1.937 0.083 3.337z"></path>
</symbol>
<symbol id="icon-facebook" viewBox="0 0 32 32">
<path d="M19 6h5v-6h-5c-3.86 0-7 3.14-7 7v3h-4v6h4v16h6v-16h5l1-6h-6v-3c0-0.542 0.458-1 1-1z"></path>
</symbol>
<symbol id="icon-twitter" viewBox="0 0 32 32">
<path d="M32 7.075c-1.175 0.525-2.444 0.875-3.769 1.031 1.356-0.813 2.394-2.1 2.887-3.631-1.269 0.75-2.675 1.3-4.169 1.594-1.2-1.275-2.906-2.069-4.794-2.069-3.625 0-6.563 2.938-6.563 6.563 0 0.512 0.056 1.012 0.169 1.494-5.456-0.275-10.294-2.888-13.531-6.862-0.563 0.969-0.887 2.1-0.887 3.3 0 2.275 1.156 4.287 2.919 5.463-1.075-0.031-2.087-0.331-2.975-0.819 0 0.025 0 0.056 0 0.081 0 3.181 2.263 5.838 5.269 6.437-0.55 0.15-1.131 0.231-1.731 0.231-0.425 0-0.831-0.044-1.237-0.119 0.838 2.606 3.263 4.506 6.131 4.563-2.25 1.762-5.075 2.813-8.156 2.813-0.531 0-1.050-0.031-1.569-0.094 2.913 1.869 6.362 2.95 10.069 2.95 12.075 0 18.681-10.006 18.681-18.681 0-0.287-0.006-0.569-0.019-0.85 1.281-0.919 2.394-2.075 3.275-3.394z"></path>
</symbol>
</defs>
</svg>
